<svg width="235" height="235" viewBox="0 0 235 235" fill="none" xmlns="http://www.w3.org/2000/svg">
<circle cx="117.466" cy="117.466" r="99" transform="rotate(167.965 117.466 117.466)" fill="url(#paint0_linear_85_27)"/>
<circle cx="178.5" cy="56.5" r="22" fill="url(#paint1_linear_85_27)" stroke="url(#paint2_linear_85_27)" stroke-width="9"/>
<ellipse cx="117.966" cy="116.966" rx="76.5" ry="76.5" transform="rotate(-180 117.966 116.966)" fill="url(#paint3_linear_85_27)"/>
<circle cx="65.4659" cy="168.466" r="17.5" fill="url(#paint4_linear_85_27)" stroke="#070E17" stroke-width="7"/>
<circle cx="69.9441" cy="80.0846" r="3" transform="rotate(-9.97908 69.9441 80.0846)" fill="#FFA800" stroke="#34373B" stroke-width="6"/>
<circle cx="57.5334" cy="107.652" r="3" transform="rotate(-9.97908 57.5334 107.652)" fill="#FFA800" stroke="#34373B" stroke-width="6"/>
<circle cx="92.3131" cy="62.9491" r="3" transform="rotate(-9.97908 92.3131 62.9491)" stroke="#34373B" stroke-width="6"/>
<path d="M171 118C171 150.5 142.5 174.5 112 168.532" stroke="#34373E" stroke-width="26" stroke-linecap="round"/>
<defs>
<linearGradient id="paint0_linear_85_27" x1="117.466" y1="18.466" x2="117.466" y2="216.466" gradientUnits="userSpaceOnUse">
<stop stop-color="#343434"/>
<stop offset="1" stop-color="#2959B5"/>
</linearGradient>
<linearGradient id="paint1_linear_85_27" x1="164.5" y1="83" x2="192" y2="38" gradientUnits="userSpaceOnUse">
<stop stop-color="#CF3E0E"/>
<stop offset="1" stop-color="#FEC889"/>
</linearGradient>
<linearGradient id="paint2_linear_85_27" x1="178.5" y1="30" x2="178.5" y2="83" gradientUnits="userSpaceOnUse">
<stop stop-color="#4B8EF1"/>
<stop offset="1"/>
</linearGradient>
<linearGradient id="paint3_linear_85_27" x1="117.391" y1="40.4663" x2="117.446" y2="193.466" gradientUnits="userSpaceOnUse">
<stop stop-color="#E46767"/>
<stop stop-color="#FF9900"/>
<stop stop-color="#E4A167" stop-opacity="0.222676"/>
<stop offset="0.0001" stop-color="#E4AD67"/>
<stop offset="0.0002" stop-color="#F02B2B" stop-opacity="0.71"/>
<stop offset="0.0003" stop-color="#CD3809"/>
<stop offset="1" stop-color="#FEC88A"/>
</linearGradient>
<linearGradient id="paint4_linear_85_27" x1="74.5" y1="158" x2="55.5" y2="189" gradientUnits="userSpaceOnUse">
<stop stop-color="#FFA800"/>
<stop offset="1" stop-color="#CF3D0D"/>
</linearGradient>
</defs>
</svg>
