<svg width="198" height="198" viewBox="0 0 198 198" fill="none" xmlns="http://www.w3.org/2000/svg">
<circle cx="99" cy="99" r="99" transform="rotate(-180 99 99)" fill="url(#paint0_linear_86_56)"/>
<circle cx="160.033" cy="38.0352" r="22" fill="url(#paint1_linear_86_56)" stroke="url(#paint2_linear_86_56)" stroke-width="9"/>
<ellipse cx="99.4991" cy="98.5005" rx="76.5" ry="76.5" transform="rotate(-180 99.4991 98.5005)" fill="url(#paint3_linear_86_56)"/>
<circle cx="46.9993" cy="149" r="17.5" fill="url(#paint4_linear_86_56)" stroke="#172344" stroke-width="7"/>
<circle cx="51.4774" cy="61.619" r="6" transform="rotate(-9.97908 51.4774 61.619)" fill="#172344"/>
<circle cx="51.4774" cy="61.619" r="6" transform="rotate(-9.97908 51.4774 61.619)" stroke="#172343"/>
<circle cx="39.0668" cy="89.1866" r="6" transform="rotate(-9.97908 39.0668 89.1866)" fill="#172344"/>
<circle cx="39.0668" cy="89.1866" r="6" transform="rotate(-9.97908 39.0668 89.1866)" stroke="#172343"/>
<circle cx="73.8464" cy="44.4835" r="6" transform="rotate(-9.97908 73.8464 44.4835)" fill="#172344"/>
<circle cx="73.8464" cy="44.4835" r="6" transform="rotate(-9.97908 73.8464 44.4835)" stroke="#172343"/>
<path d="M152.533 99.5346C152.533 132.035 124.033 156.034 93.533 150.067" stroke="#172344" stroke-width="26" stroke-linecap="round"/>
<defs>
<linearGradient id="paint0_linear_86_56" x1="22.9661" y1="17.9661" x2="154.466" y2="144.966" gradientUnits="userSpaceOnUse">
<stop stop-color="#193160"/>
<stop offset="1" stop-color="#2663D9"/>
</linearGradient>
<linearGradient id="paint1_linear_86_56" x1="151" y1="54" x2="168" y2="28.5" gradientUnits="userSpaceOnUse">
<stop stop-color="#CF3C0C"/>
<stop offset="1" stop-color="#FEC889"/>
</linearGradient>
<linearGradient id="paint2_linear_86_56" x1="160.033" y1="11.5352" x2="160.033" y2="64.5352" gradientUnits="userSpaceOnUse">
<stop stop-color="#4B8EF1"/>
<stop offset="1"/>
</linearGradient>
<linearGradient id="paint3_linear_86_56" x1="98.924" y1="22.0005" x2="98.9788" y2="175" gradientUnits="userSpaceOnUse">
<stop stop-color="#B46D6D"/>
<stop stop-color="#FF9900"/>
<stop stop-color="#E4A167" stop-opacity="0.222676"/>
<stop offset="0.0001" stop-color="#E4AD67"/>
<stop offset="0.0002" stop-color="#F02B2B" stop-opacity="0.71"/>
<stop offset="0.0003" stop-color="#CD3809"/>
<stop offset="1" stop-color="#FEC88A"/>
</linearGradient>
<linearGradient id="paint4_linear_86_56" x1="56.0333" y1="138.534" x2="37.0333" y2="169.534" gradientUnits="userSpaceOnUse">
<stop stop-color="#FDC486"/>
<stop offset="1" stop-color="#AA2A00"/>
</linearGradient>
</defs>
</svg>
