<svg width="74" height="72" viewBox="0 0 74 72" fill="none" xmlns="http://www.w3.org/2000/svg">
<path d="M35.15 72C32.0667 72 29.4458 70.7647 27.2875 68.2941C25.1292 65.8235 24.05 62.8235 24.05 59.2941H31.45C31.45 60.4941 31.8052 61.5007 32.5156 62.3139C33.226 63.1271 34.1041 63.5322 35.15 63.5294C36.1983 63.5294 37.0777 63.1228 37.7881 62.3096C38.4985 61.4965 38.8525 60.4913 38.85 59.2941C38.85 58.0941 38.4948 57.0875 37.7844 56.2744C37.074 55.4612 36.1959 55.056 35.15 55.0588H0V46.5882H35.15C38.2333 46.5882 40.8542 47.8235 43.0125 50.2941C45.1708 52.7647 46.25 55.7647 46.25 59.2941C46.25 62.8235 45.1708 65.8235 43.0125 68.2941C40.8542 70.7647 38.2333 72 35.15 72ZM0 29.6471V21.1765H49.95C51.5533 21.1765 52.8792 20.5765 53.9275 19.3765C54.9758 18.1765 55.5 16.6588 55.5 14.8235C55.5 12.9882 54.9758 11.4706 53.9275 10.2706C52.8792 9.07059 51.5533 8.47059 49.95 8.47059C48.3467 8.47059 47.0208 9.07059 45.9725 10.2706C44.9242 11.4706 44.4 12.9882 44.4 14.8235H37C37 10.6588 38.2481 7.14636 40.7444 4.28612C43.2407 1.42589 46.3092 -0.00281935 49.95 4.17682e-06C53.5883 4.17682e-06 56.6569 1.42871 59.1556 4.28612C61.6543 7.14353 62.9025 10.656 62.9 14.8235C62.9 18.9882 61.6519 22.5007 59.1556 25.3609C56.6593 28.2212 53.5908 29.6499 49.95 29.6471H0ZM61.05 63.5294V55.0588C62.6533 55.0588 63.9792 54.4588 65.0275 53.2588C66.0758 52.0588 66.6 50.5412 66.6 48.7059C66.6 46.8706 66.0758 45.3529 65.0275 44.1529C63.9792 42.9529 62.6533 42.3529 61.05 42.3529H0V33.8824H61.05C64.6883 33.8824 67.7569 35.3111 70.2556 38.1685C72.7543 41.0259 74.0025 44.5384 74 48.7059C74 52.8706 72.7519 56.3831 70.2556 59.2433C67.7593 62.1035 64.6908 63.5322 61.05 63.5294Z" fill="white"/>
</svg>
