<svg width="26" height="26" viewBox="0 0 26 26" fill="none" xmlns="http://www.w3.org/2000/svg">
<path d="M7.58333 11.9167H9.75V14.0833H7.58333V11.9167ZM22.75 6.5V21.6667C22.75 22.8583 21.775 23.8333 20.5833 23.8333H5.41667C4.84203 23.8333 4.29093 23.6051 3.8846 23.1987C3.47827 22.7924 3.25 22.2413 3.25 21.6667L3.26083 6.5C3.26083 5.30833 4.21417 4.33333 5.41667 4.33333H6.5V2.16666H8.66667V4.33333H17.3333V2.16666H19.5V4.33333H20.5833C21.775 4.33333 22.75 5.30833 22.75 6.5ZM5.41667 8.66666H20.5833V6.5H5.41667V8.66666ZM20.5833 21.6667V10.8333H5.41667V21.6667H20.5833ZM16.25 14.0833H18.4167V11.9167H16.25V14.0833ZM11.9167 14.0833H14.0833V11.9167H11.9167V14.0833Z" fill="white"/>
</svg>
