<svg width="44" height="34" viewBox="0 0 44 34" fill="none" xmlns="http://www.w3.org/2000/svg">
<path d="M41.3333 9.75C41.3333 7.82718 40.5695 5.98311 39.2098 4.62348C37.8502 3.26384 36.0061 2.5 34.0833 2.5H31.6667C29.7438 2.5 27.8998 3.26384 26.5401 4.62348C25.1805 5.98311 24.4167 7.82718 24.4167 9.75V24.25C24.4167 26.1728 25.1805 28.0169 26.5401 29.3765C27.8998 30.7362 29.7438 31.5 31.6667 31.5H34.0833C36.0061 31.5 37.8502 30.7362 39.2098 29.3765C40.5695 28.0169 41.3333 26.1728 41.3333 24.25M2.66666 7.33333C2.66666 8.61521 3.17588 9.84459 4.08231 10.751C4.98873 11.6574 6.21811 12.1667 7.49999 12.1667C8.78187 12.1667 10.0112 11.6574 10.9177 10.751C11.8241 9.84459 12.3333 8.61521 12.3333 7.33333C12.3333 6.05145 11.8241 4.82208 10.9177 3.91565C10.0112 3.00922 8.78187 2.5 7.49999 2.5C6.21811 2.5 4.98873 3.00922 4.08231 3.91565C3.17588 4.82208 2.66666 6.05145 2.66666 7.33333Z" stroke="white" stroke-width="4" stroke-linecap="round" stroke-linejoin="round"/>
</svg>
