<svg width="87" height="86" viewBox="0 0 87 86" fill="none" xmlns="http://www.w3.org/2000/svg">
<path d="M83.5833 59.8306C83.5833 72.3976 73.2767 82.5833 60.5607 82.5833H39.2625M52.8851 38.3713C55.3527 37.5115 57.9476 37.0742 60.5607 37.0779C63.1957 37.0779 65.7301 37.5171 68.0952 38.3229M68.0952 38.3229C66.8099 26.9566 57.0553 18.1166 45.2095 18.1166C32.4935 18.1166 22.1869 28.3024 22.1869 40.8693C22.1836 43.5687 22.6667 46.2466 23.6132 48.7746M68.0952 38.3229C70.8126 39.2529 73.3324 40.6822 75.525 42.5374M23.6132 48.7746C22.5114 48.5603 21.3915 48.4524 20.269 48.4522C10.732 48.4563 3 56.0956 3 65.5198C3 74.944 10.732 82.5833 20.269 82.5833H23.1458M23.6132 48.7746C25.8425 49.2075 27.9647 50.0756 29.8584 51.3291" stroke="white" stroke-width="6" stroke-linecap="round"/>
<path d="M27.175 12.0729C23.972 12.0715 20.864 13.1605 18.3624 15.1606C15.8608 17.1608 14.1145 19.953 13.4111 23.0778C12.7076 26.2025 13.0889 29.4736 14.492 32.3529C15.8952 35.2321 18.2367 37.5479 21.1312 38.9192M27.175 12.0729C30.1727 12.0729 32.9488 13.0076 35.2333 14.5992M27.175 12.0729C24.1773 12.0729 21.4012 13.0076 19.1167 14.5992M27.175 12.0729C31.0188 12.0729 34.5 13.608 37.0465 16.102M27.175 12.0729C23.3312 12.0729 19.85 13.608 17.3035 16.102M27.175 12.0729C32.3041 12.0729 36.7966 14.8127 39.2625 18.9063" stroke="white" stroke-width="4"/>
<path d="M25.1604 2V4.01458M5.01458 24.1604H3M40.8298 8.49099L39.9595 9.36129M10.3613 38.9595L9.49099 39.8298M10.3613 9.36129L9.49099 8.49099" stroke="white" stroke-width="4" stroke-linecap="round"/>
</svg>
