<svg width="68" height="68" viewBox="0 0 68 68" fill="none" xmlns="http://www.w3.org/2000/svg">
<path d="M4.00001 10.6667C4.00001 8.66669 5.33334 7.33335 7.33334 7.33335H10.6667C12.6667 7.33335 14 8.66669 14 10.6667C14 12.6667 12.6667 14 10.6667 14H7.33334C5.33334 14 4.00001 12.6667 4.00001 10.6667ZM7.33334 37.3334C7.33334 35.3334 8.66667 34 10.6667 34H14C16 34 17.3333 35.3334 17.3333 37.3334C17.3333 39.3334 16 40.6667 14 40.6667H10.6667C8.66667 40.6667 7.33334 39.3334 7.33334 37.3334ZM7.33334 47.3334C5.33334 47.3334 4.00001 48.6667 4.00001 50.6667C4.00001 52.6667 5.33334 54 7.33334 54H24C26 54 27.3333 52.6667 27.3333 50.6667C27.3333 48.6667 26 47.3334 24 47.3334H7.33334ZM54 10.6667C54 8.66669 55.3333 7.33335 57.3333 7.33335H64C66 7.33335 67.3333 8.66669 67.3333 10.6667C67.3333 12.6667 66 14 64 14H57.3333C55.3333 14 54 12.6667 54 10.6667ZM17.3333 60.6667C15.3333 60.6667 14 62 14 64C14 66 15.3333 67.3334 17.3333 67.3334H30.6667C32.6667 67.3334 34 66 34 64C34 62 32.6667 60.6667 30.6667 60.6667H17.3333ZM4.00001 27.3334C2.00001 27.3334 0.666672 26 0.666672 24C0.666672 22 2.00001 20.6667 4.00001 20.6667H34C37.6667 20.6667 40.6667 17.6667 40.6667 14C40.6667 10.3334 37.6667 7.33335 34 7.33335C32 7.33335 30.3333 8.00002 29.3333 9.33335C28 10.6667 26 10.6667 24.6667 9.33335C23.3333 8.00002 23.3333 6.00002 24.6667 4.66669C27 2.33335 30.3333 0.666687 34 0.666687C41.3333 0.666687 47.3333 6.66669 47.3333 14C47.3333 21.3334 41.3333 27.3334 34 27.3334H4.00001ZM57.3333 34C59.3333 34 60.6667 32.6667 60.6667 30.6667C60.6667 28.6667 59.3333 27.3334 57.3333 27.3334C56.3333 27.3334 55.6667 27.6667 55 28.3334C53.6667 29.6667 51.6667 29.6667 50.3333 28.3334C49 27 49 25 50.3333 23.6667C52 21.6667 54.6667 20.6667 57.3333 20.6667C63 20.6667 67.3333 25 67.3333 30.6667C67.3333 36.3334 63 40.6667 57.3333 40.6667H27.3333C25.3333 40.6667 24 39.3334 24 37.3334C24 35.3334 25.3333 34 27.3333 34H57.3333ZM54 54H37.3333C35.3333 54 34 52.6667 34 50.6667C34 48.6667 35.3333 47.3334 37.3333 47.3334H54C59.6667 47.3334 64 51.6667 64 57.3334C64 63 59.6667 67.3334 54 67.3334C51.3333 67.3334 48.6667 66.3334 47 64.3334C45.6667 63 45.6667 61 47 59.6667C48.3333 58.3334 50.3333 58.3334 51.6667 59.6667C52.3333 60.3334 53 60.6667 54 60.6667C56 60.6667 57.3333 59.3334 57.3333 57.3334C57.3333 55.3334 56 54 54 54Z" fill="white"/>
</svg>
