<svg width="40" height="31" viewBox="0 0 40 31" fill="none" xmlns="http://www.w3.org/2000/svg">
<path d="M22.25 15.5H33.5M38 2H24.5C23.9033 2 23.331 2.23705 22.909 2.65901C22.4871 3.08097 22.25 3.65326 22.25 4.25V29M2 6.5C2 7.69347 2.47411 8.83807 3.31802 9.68198C4.16193 10.5259 5.30653 11 6.5 11C7.69347 11 8.83807 10.5259 9.68198 9.68198C10.5259 8.83807 11 7.69347 11 6.5C11 5.30653 10.5259 4.16193 9.68198 3.31802C8.83807 2.47411 7.69347 2 6.5 2C5.30653 2 4.16193 2.47411 3.31802 3.31802C2.47411 4.16193 2 5.30653 2 6.5Z" stroke="white" stroke-width="4" stroke-linecap="round" stroke-linejoin="round"/>
</svg>
