<svg width="70" height="67" viewBox="0 0 70 67" fill="none" xmlns="http://www.w3.org/2000/svg">
<path d="M40.8629 10.3904C38.0203 9.6738 35.1777 9.6738 32.335 9.6738L43.7056 0L48.6802 14.3316C46.1929 12.5401 43.7056 11.4652 40.8629 10.3904ZM16.7005 17.1979C18.8325 15.0481 21.3198 13.2567 23.8071 12.1818L9.23858 9.31551L11.7259 24.0053C13.1472 21.4973 14.5685 18.9893 16.7005 17.1979ZM10.3046 41.2032C9.59391 38.3369 9.59391 35.4706 9.59391 32.6043L0 44.0695L14.2132 49.0856C12.4365 46.9358 11.0152 44.0695 10.3046 41.2032ZM70 59.8342V67H2.48731L21.6751 47.2941C14.9239 40.1283 14.9239 29.0214 21.6751 21.8556C28.4264 15.0481 39.797 15.0481 46.5482 21.8556L57.2081 11.107L62.1827 16.123L19.1878 59.8342H70ZM26.6497 42.2781L41.5736 26.8717C37.3096 22.9305 30.9137 22.9305 26.6497 26.8717C22.7411 31.1711 22.7411 37.9786 26.6497 42.2781Z" fill="white"/>
</svg>
