<svg width="80" height="53" viewBox="0 0 80 53" fill="none" xmlns="http://www.w3.org/2000/svg">
<path d="M68.3899 20.811C66.5735 16.7998 63.6287 13.3947 59.9096 11.0053C56.1904 8.61587 51.8551 7.34375 47.425 7.34191C45.6279 7.35631 43.8391 7.58627 42.0976 8.02678C39.916 4.96976 36.8738 2.62023 33.3524 1.27288C29.8311 -0.0744813 25.9874 -0.359687 22.3034 0.453028C18.6194 1.26574 15.2592 3.1402 12.6441 5.8413C10.029 8.54241 8.27542 11.9499 7.60339 15.6365C5.0958 16.5327 2.97969 18.2658 1.6169 20.5395C0.254108 22.8132 -0.270723 25.4863 0.132149 28.1017C0.535022 30.717 1.84057 33.1123 3.82557 34.8777C5.81056 36.6432 8.35171 37.6694 11.0145 37.7806H14.8472C14.8072 38.4142 14.8072 39.0495 14.8472 39.6831C14.8472 43.2149 16.2605 46.6021 18.7762 49.0996C21.2919 51.597 24.7039 53 28.2616 53H63.4074C67.3715 52.9993 71.2044 51.59 74.2125 49.0271C77.2207 46.4641 79.2054 42.9169 79.8074 39.0273C80.4095 35.1376 79.5892 31.1625 77.4949 27.8213C75.4007 24.48 72.1709 21.9932 68.3899 20.811ZM11.0145 30.171C9.99799 30.171 9.02313 29.7701 8.30436 29.0565C7.5856 28.343 7.1818 27.3752 7.1818 26.3661C7.1818 25.357 7.5856 24.3892 8.30436 23.6757C9.02313 22.9621 9.99799 22.5613 11.0145 22.5613C12.031 22.5613 13.0058 22.1604 13.7246 21.4469C14.4434 20.7333 14.8472 19.7655 14.8472 18.7564C14.8472 15.7291 16.0586 12.8258 18.2149 10.6851C20.3712 8.54451 23.2958 7.34191 26.3452 7.34191C27.9526 7.35048 29.5403 7.69351 31.0058 8.34887C32.4714 9.00424 33.7823 9.95737 34.8538 11.1468C32.1338 12.9037 29.8192 15.2121 28.0621 17.9205C26.305 20.6288 25.1452 23.6757 24.6589 26.8607C22.4925 27.4664 20.5151 28.605 18.9098 30.171H11.0145ZM63.4074 45.3903H28.2616C26.7369 45.3903 25.2746 44.789 24.1964 43.7187C23.1183 42.6484 22.5126 41.1967 22.5126 39.6831C22.5126 38.1694 23.1183 36.7177 24.1964 35.6474C25.2746 34.5771 26.7369 33.9758 28.2616 33.9758C29.2781 33.9758 30.2529 33.5749 30.9717 32.8614C31.6905 32.1478 32.0943 31.1801 32.0943 30.171C32.1107 26.578 33.4071 23.1067 35.7539 20.3715C38.1007 17.6362 41.3466 15.8134 44.9171 15.2257C48.4876 14.638 52.1525 15.3232 55.263 17.1602C58.3734 18.9971 60.729 21.8673 61.9126 25.2627C62.1317 25.9165 62.5255 26.499 63.052 26.948C63.5785 27.397 64.218 27.6956 64.9021 27.812C67.0775 28.2157 69.0245 29.407 70.3653 31.1549C71.7062 32.9028 72.3456 35.0827 72.1594 37.2719C71.9733 39.4612 70.9749 41.5039 69.3578 43.0038C67.7407 44.5038 65.6202 45.3543 63.4074 45.3903Z" fill="white"/>
</svg>
