<svg width="80" height="80" viewBox="0 0 80 80" fill="none" xmlns="http://www.w3.org/2000/svg">
<path d="M36.9231 6.15385V3.07692C36.9231 2.26087 37.2473 1.47824 37.8243 0.90121C38.4013 0.324175 39.1839 0 40 0C40.8161 0 41.5987 0.324175 42.1757 0.90121C42.7528 1.47824 43.0769 2.26087 43.0769 3.07692V6.15385C43.0769 6.9699 42.7528 7.75252 42.1757 8.32956C41.5987 8.90659 40.8161 9.23077 40 9.23077C39.1839 9.23077 38.4013 8.90659 37.8243 8.32956C37.2473 7.75252 36.9231 6.9699 36.9231 6.15385ZM64.6154 40C64.6154 44.8685 63.1717 49.6276 60.4669 53.6756C57.7622 57.7236 53.9178 60.8786 49.4199 62.7417C44.922 64.6047 39.9727 65.0922 35.1978 64.1424C30.4229 63.1926 26.0368 60.8482 22.5943 57.4057C19.1518 53.9632 16.8074 49.5771 15.8576 44.8022C14.9078 40.0273 15.3953 35.078 17.2584 30.5801C19.1214 26.0822 22.2764 22.2378 26.3244 19.5331C30.3724 16.8283 35.1315 15.3846 40 15.3846C46.5262 15.3917 52.7831 17.9874 57.3978 22.6022C62.0126 27.2169 64.6083 33.4738 64.6154 40ZM58.4615 40C58.4615 36.3487 57.3788 32.7793 55.3502 29.7433C53.3216 26.7073 50.4383 24.3411 47.0649 22.9438C43.6915 21.5465 39.9795 21.1809 36.3983 21.8932C32.8171 22.6055 29.5276 24.3638 26.9457 26.9457C24.3638 29.5276 22.6055 32.8171 21.8932 36.3983C21.1809 39.9795 21.5465 43.6915 22.9438 47.0649C24.3411 50.4383 26.7073 53.3216 29.7433 55.3502C32.7793 57.3788 36.3487 58.4615 40 58.4615C44.8947 58.4564 49.5876 56.5098 53.0487 53.0487C56.5098 49.5876 58.4564 44.8947 58.4615 40ZM13.2077 17.5615C13.785 18.1389 14.5681 18.4632 15.3846 18.4632C16.2011 18.4632 16.9842 18.1389 17.5615 17.5615C18.1389 16.9842 18.4632 16.2011 18.4632 15.3846C18.4632 14.5681 18.1389 13.785 17.5615 13.2077L14.4846 10.1308C13.9073 9.55341 13.1242 9.22906 12.3077 9.22906C11.4912 9.22906 10.7081 9.55341 10.1308 10.1308C9.55341 10.7081 9.22906 11.4912 9.22906 12.3077C9.22906 13.1242 9.55341 13.9073 10.1308 14.4846L13.2077 17.5615ZM13.2077 62.4385L10.1308 65.5154C9.55341 66.0927 9.22906 66.8758 9.22906 67.6923C9.22906 68.5088 9.55341 69.2919 10.1308 69.8692C10.7081 70.4466 11.4912 70.7709 12.3077 70.7709C13.1242 70.7709 13.9073 70.4466 14.4846 69.8692L17.5615 66.7923C17.8474 66.5064 18.0742 66.167 18.2289 65.7935C18.3836 65.42 18.4632 65.0197 18.4632 64.6154C18.4632 64.2111 18.3836 63.8108 18.2289 63.4372C18.0742 63.0637 17.8474 62.7243 17.5615 62.4385C17.2757 62.1526 16.9363 61.9258 16.5628 61.7711C16.1892 61.6164 15.7889 61.5367 15.3846 61.5367C14.9803 61.5367 14.58 61.6164 14.2065 61.7711C13.833 61.9258 13.4936 62.1526 13.2077 62.4385ZM64.6154 18.4615C65.0196 18.4619 65.4199 18.3825 65.7934 18.2281C66.1669 18.0737 66.5063 17.8472 66.7923 17.5615L69.8692 14.4846C70.4466 13.9073 70.7709 13.1242 70.7709 12.3077C70.7709 11.4912 70.4466 10.7081 69.8692 10.1308C69.2919 9.55341 68.5088 9.22906 67.6923 9.22906C66.8758 9.22906 66.0927 9.55341 65.5154 10.1308L62.4385 13.2077C62.0077 13.638 61.7142 14.1865 61.5953 14.7837C61.4764 15.3809 61.5373 15.9999 61.7704 16.5624C62.0035 17.125 62.3982 17.6057 62.9047 17.9438C63.4111 18.2818 64.0065 18.462 64.6154 18.4615ZM66.7923 62.4385C66.215 61.8611 65.4319 61.5367 64.6154 61.5367C63.7989 61.5367 63.0158 61.8611 62.4385 62.4385C61.8611 63.0158 61.5367 63.7989 61.5367 64.6154C61.5367 65.4319 61.8611 66.215 62.4385 66.7923L65.5154 69.8692C65.8013 70.1551 66.1406 70.3819 66.5142 70.5366C66.8877 70.6913 67.288 70.7709 67.6923 70.7709C68.0966 70.7709 68.4969 70.6913 68.8705 70.5366C69.244 70.3819 69.5834 70.1551 69.8692 69.8692C70.1551 69.5834 70.3819 69.244 70.5366 68.8705C70.6913 68.4969 70.7709 68.0966 70.7709 67.6923C70.7709 67.288 70.6913 66.8877 70.5366 66.5142C70.3819 66.1406 70.1551 65.8013 69.8692 65.5154L66.7923 62.4385ZM6.15385 36.9231H3.07692C2.26087 36.9231 1.47824 37.2473 0.90121 37.8243C0.324175 38.4013 0 39.1839 0 40C0 40.8161 0.324175 41.5987 0.90121 42.1757C1.47824 42.7528 2.26087 43.0769 3.07692 43.0769H6.15385C6.9699 43.0769 7.75252 42.7528 8.32956 42.1757C8.90659 41.5987 9.23077 40.8161 9.23077 40C9.23077 39.1839 8.90659 38.4013 8.32956 37.8243C7.75252 37.2473 6.9699 36.9231 6.15385 36.9231ZM40 70.7692C39.1839 70.7692 38.4013 71.0934 37.8243 71.6704C37.2473 72.2475 36.9231 73.0301 36.9231 73.8462V76.9231C36.9231 77.7391 37.2473 78.5218 37.8243 79.0988C38.4013 79.6758 39.1839 80 40 80C40.8161 80 41.5987 79.6758 42.1757 79.0988C42.7528 78.5218 43.0769 77.7391 43.0769 76.9231V73.8462C43.0769 73.0301 42.7528 72.2475 42.1757 71.6704C41.5987 71.0934 40.8161 70.7692 40 70.7692ZM76.9231 36.9231H73.8462C73.0301 36.9231 72.2475 37.2473 71.6704 37.8243C71.0934 38.4013 70.7692 39.1839 70.7692 40C70.7692 40.8161 71.0934 41.5987 71.6704 42.1757C72.2475 42.7528 73.0301 43.0769 73.8462 43.0769H76.9231C77.7391 43.0769 78.5218 42.7528 79.0988 42.1757C79.6758 41.5987 80 40.8161 80 40C80 39.1839 79.6758 38.4013 79.0988 37.8243C78.5218 37.2473 77.7391 36.9231 76.9231 36.9231Z" fill="white"/>
</svg>
