<svg width="80" height="87" viewBox="0 0 80 87" fill="none" xmlns="http://www.w3.org/2000/svg">
<path d="M10.9091 0V41.5751C4.54545 46.1752 0 53.2005 0 61.625C0 75.5994 11.4364 87 25.4545 87C39.4727 87 50.9091 75.5994 50.9091 61.625C50.9091 53.2005 46.3636 46.1752 40 41.5751V36.25H47.2727V29H40V21.75H47.2727V14.5H40V7.25H47.2727V0H10.9091ZM67.2727 0C60.2545 0 54.5455 5.69125 54.5455 12.6875C54.5455 19.6837 60.2545 25.375 67.2727 25.375C74.2909 25.375 80 19.6837 80 12.6875C80 5.69125 74.2909 0 67.2727 0ZM18.1818 7.25H32.7273V44.9718L34.5455 45.994C39.9855 49.1369 43.6364 54.9115 43.6364 61.625C43.6364 71.6771 35.5382 79.75 25.4545 79.75C15.3709 79.75 7.27273 71.6771 7.27273 61.625C7.27273 54.9115 10.9236 49.1369 16.3636 45.9904L18.1818 44.9754V7.25ZM67.2727 7.25C70.28 7.25 72.7273 9.68962 72.7273 12.6875C72.7273 15.6854 70.28 18.125 67.2727 18.125C64.2655 18.125 61.8182 15.6854 61.8182 12.6875C61.8182 9.68962 64.2655 7.25 67.2727 7.25ZM21.8182 14.5V51.4315C17.6 52.9322 14.5455 56.9161 14.5455 61.6323C14.6189 64.4679 15.8005 67.1627 17.8383 69.1424C19.8762 71.1221 22.6091 72.2301 25.4545 72.2301C28.3 72.2301 31.0329 71.1221 33.0708 69.1424C35.1086 67.1627 36.2902 64.4679 36.3636 61.6323C36.3636 56.9161 33.3091 52.9322 29.0909 51.4315V14.5H21.8182Z" fill="white"/>
</svg>
